<svg xmlns="http://www.w3.org/2000/svg" width="1200" height="675" viewBox="0 0 1200 675" role="img" aria-label="Pusher Manual dashboard setup">
  <defs>
    <linearGradient id="g" x1="0" x2="1" y1="0" y2="1">
      <stop offset="0" stop-color="#111827"/>
      <stop offset="0.55" stop-color="#1F2937"/>
      <stop offset="1" stop-color="#020617"/>
    </linearGradient>
    <filter id="shadow" x="-20%" y="-20%" width="140%" height="140%">
      <feDropShadow dx="0" dy="24" stdDeviation="24" flood-color="#000000" flood-opacity="0.35"/>
    </filter>
  </defs>
  <rect width="1200" height="675" fill="url(#g)"/>
  <circle cx="1040" cy="110" r="180" fill="#F43F5E" opacity="0.16"/>
  <circle cx="110" cy="560" r="220" fill="#F59E0B" opacity="0.13"/>
  <path d="M0 520 C260 430 390 610 650 500 C850 415 990 470 1200 380 L1200 675 L0 675 Z" fill="#ffffff" opacity="0.06"/>
  <rect x="95" y="82" width="1010" height="510" rx="34" fill="#ffffff" opacity="0.09" stroke="#ffffff" stroke-opacity="0.18" filter="url(#shadow)"/>
  <text x="145" y="155" font-family="Inter, Arial, sans-serif" font-size="28" font-weight="700" fill="#ffffff" opacity="0.78">Manual dashboard setup</text>
  <text x="145" y="220" font-family="Inter, Arial, sans-serif" font-size="76" font-weight="900" fill="#ffffff">Pusher</text>
  <rect x="145" y="255" width="910" height="2" rx="1" fill="#ffffff" opacity="0.22"/>
  <text x="145" y="335" font-family="JetBrains Mono, Consolas, monospace" font-size="24" font-weight="700" fill="#F43F5E">npm install pusher</text>
  <text x="145" y="390" font-family="Inter, Arial, sans-serif" font-size="24" fill="#ffffff" opacity="0.84">Manual setup, environment variables, and code snippets for MERN apps.</text>
  <g transform="translate(780 310)">
    <rect width="220" height="220" rx="44" fill="#ffffff" opacity="0.14"/>
    <text x="110" y="135" text-anchor="middle" font-size="112">📡</text>
  </g>
  <text x="145" y="520" font-family="Inter, Arial, sans-serif" font-size="22" fill="#ffffff" opacity="0.68">IntegrateKit detailed integration guide</text>
</svg>